<svg version="1.1" id="Layer_1" xmlns="http://www.w3.org/2000/svg" xmlns:xlink="http://www.w3.org/1999/xlink" x="0px" y="0px" width="100%" viewBox="0 0 500 500" enable-background="new 0 0 500 500" xml:space="preserve">
  <path fill="#000000" opacity="1.000000" stroke="none" d="
M219.000000,501.000000 
	C146.000015,501.000000 73.500038,501.000000 1.000039,501.000000 
	C1.000026,334.333405 1.000026,167.666779 1.000013,1.000128 
	C167.666565,1.000086 334.333130,1.000086 500.999756,1.000043 
	C500.999847,167.666534 500.999847,334.333069 500.999939,500.999817 
	C407.166656,501.000000 313.333344,501.000000 219.000000,501.000000 
M184.596039,344.845856 
	C185.310654,343.874207 186.025269,342.902557 187.377274,341.648254 
	C189.161667,340.211823 191.004791,338.841644 192.717697,337.324524 
	C195.855484,334.545380 198.916397,331.679443 202.632874,329.201416 
	C221.967987,339.988617 241.795975,341.144958 262.847565,332.141602 
	C264.807098,330.950531 266.776764,329.775757 268.724609,328.565887 
	C286.868866,317.295624 298.192139,301.512970 300.950592,279.073059 
	C302.473938,266.234161 297.286316,255.046265 291.550049,243.859329 
	C293.560181,243.188248 294.903290,242.739838 295.681305,242.480087 
	C300.730591,250.912079 305.372833,259.241028 310.697479,267.108093 
	C311.873901,268.846191 315.429535,269.414154 317.960297,269.610626 
	C319.235413,269.709656 320.668884,267.769440 322.030731,266.751312 
	C320.715363,265.517975 319.475250,264.189331 318.065125,263.076050 
	C316.400421,261.761749 314.052155,260.996887 312.941711,259.356506 
	C309.658295,254.505966 306.731995,249.401154 303.868622,244.282455 
	C301.140198,239.404999 296.112457,236.001678 292.196747,238.278549 
	C285.674500,242.071030 285.418213,236.980774 282.690521,232.785095 
	C289.442535,232.785095 295.216339,232.785095 301.701202,233.190079 
	C304.239777,233.768127 306.773376,234.800720 309.317932,234.828400 
	C314.414948,234.883881 319.538483,234.562897 324.599365,233.961731 
	C325.503296,233.854340 326.681244,231.667480 326.730133,230.402054 
	C326.759216,229.649368 324.866333,228.188232 323.777130,228.127411 
	C315.522858,227.666626 307.253662,227.473557 298.061127,227.081879 
	C292.915405,227.137283 287.725464,226.793762 282.636108,227.357758 
	C277.305084,227.948532 271.706696,225.661377 269.156860,221.514893 
	C278.384338,219.467819 287.957397,217.480804 297.453247,215.175812 
	C301.751129,214.132553 306.013794,212.722092 310.044037,210.922073 
	C311.409485,210.312241 312.011688,207.993530 312.962677,206.455734 
	C311.398254,205.626328 309.887115,204.291046 308.253387,204.118820 
	C306.803406,203.965973 305.221649,205.116486 303.690521,205.670761 
	C296.107208,208.416046 288.692719,212.367905 280.876617,213.471603 
	C275.601807,214.216461 270.073456,213.164413 264.709900,215.766068 
	C264.575073,215.644836 264.440247,215.523590 264.690338,214.857513 
	C266.138275,212.928024 267.586212,210.998535 269.607208,208.588470 
	C275.287262,194.314484 272.897858,180.947464 265.020447,168.223511 
	C261.282898,162.186417 254.647812,159.110245 248.094131,161.272598 
	C245.420685,162.154663 243.424866,165.090469 241.068558,167.052322 
	C241.068558,167.052322 241.084152,167.115952 240.629440,167.117065 
	C240.431732,167.483322 240.234009,167.849579 239.757721,168.514984 
	C239.656830,168.847305 239.776535,169.043930 239.399948,169.199936 
	C231.203934,183.918045 230.180557,198.818649 238.280823,213.964828 
	C222.694107,215.234970 209.161865,207.351791 194.584518,203.950668 
	C192.056870,208.057022 192.713882,210.479752 197.405685,211.733261 
	C203.583160,213.383713 209.672302,215.364731 215.905884,217.235580 
	C210.917435,219.610107 206.427979,221.747101 201.234406,224.043915 
	C198.214249,225.809753 195.841064,229.020569 191.625458,228.054184 
	C187.803604,227.178070 183.964722,226.282074 180.082901,225.807953 
	C178.516083,225.616592 175.719299,226.112885 175.383850,227.008484 
	C174.434753,229.542358 175.057953,231.722214 178.700348,232.091721 
	C182.122375,232.438889 185.462204,233.596100 189.574615,234.571564 
	C182.266159,243.061813 177.516663,251.741837 175.743408,262.671234 
	C175.205643,266.113525 174.667862,269.555817 174.046082,273.896423 
	C174.360229,277.266785 174.674377,280.637177 175.030289,284.869629 
	C175.302200,287.299408 175.574112,289.729187 175.901871,292.036407 
	C175.901871,292.036407 175.815598,292.142914 175.942841,292.850769 
	C176.010818,293.565857 176.078781,294.280975 176.315887,295.706879 
	C176.929123,297.567627 177.117981,299.744659 178.228455,301.234863 
	C183.254684,307.979797 179.429962,312.468231 174.644043,316.837982 
	C174.031509,317.397247 173.501511,318.049988 172.870377,318.585236 
	C168.506866,322.285858 163.797806,325.646271 159.823380,329.723785 
	C152.536102,337.200073 155.475479,349.826263 165.159241,353.575989 
	C165.364105,353.842255 165.614441,354.055084 166.445740,354.808136 
	C172.802948,355.758575 177.632141,353.428772 181.007034,347.995880 
	C181.007034,347.995880 181.013245,348.018524 181.617523,347.879242 
	C182.377014,346.911285 183.136520,345.943329 183.950775,345.023163 
	C183.950775,345.023163 183.998642,344.968475 184.596039,344.845856 
M296.110718,199.022949 
	C291.501251,199.351608 286.888885,199.972031 282.283142,199.926453 
	C277.722321,199.881348 274.916260,201.667877 273.223602,206.563019 
	C279.827942,205.914856 285.919800,205.316986 292.872162,204.840118 
	C301.103210,205.023270 302.188171,204.242493 305.718781,195.772064 
	C310.290985,188.537231 314.711700,181.199585 319.515167,174.121719 
	C321.264496,171.544189 321.586731,169.332672 319.095551,167.744644 
	C316.226654,165.915833 314.216034,167.809631 312.821503,170.411804 
	C309.881256,175.898407 306.887665,181.356644 303.976135,186.858368 
	C302.213043,190.189911 300.562653,193.581100 298.364777,197.265625 
	C297.914856,197.879868 297.464935,198.494125 296.110718,199.022949 
M197.891983,190.677277 
	C199.909714,194.452515 201.793030,198.309753 204.018539,201.958237 
	C204.790695,203.224106 206.379410,204.774139 207.649277,204.824295 
	C214.683060,205.102081 221.733521,204.957367 228.778275,204.957367 
	C229.019958,204.331802 229.261658,203.706238 229.503342,203.080673 
	C227.684921,202.068192 225.943268,200.406845 224.031815,200.180695 
	C220.259033,199.734329 216.372757,200.311829 212.573944,199.988922 
	C211.077637,199.861725 209.006485,198.814926 208.362030,197.579300 
	C203.747803,188.732224 199.274139,179.801773 195.115005,170.733078 
	C193.739029,167.732849 192.120377,166.338730 189.103683,167.647934 
	C185.913773,169.032318 186.624405,171.624985 187.941467,173.913681 
	C191.058594,179.330460 194.334000,184.656128 197.891983,190.677277 
M225.575531,161.953522 
	C225.656876,160.397079 225.738205,158.840652 225.819534,157.284210 
	C223.847641,157.716370 220.860977,157.487015 220.075226,158.692383 
	C216.163147,164.693604 212.770294,171.040192 209.377258,177.363174 
	C209.000092,178.066040 209.463287,179.804550 210.118134,180.310837 
	C210.763535,180.809814 212.541855,180.781677 213.135010,180.236359 
	C215.008560,178.513885 216.806076,176.599762 218.181808,174.468521 
	C220.672119,170.610596 222.836472,166.542282 225.575531,161.953522 
M287.480957,160.105652 
	C286.765656,159.412521 286.160217,158.403000 285.307098,158.106674 
	C284.250763,157.739792 282.644714,157.510071 281.914520,158.063431 
	C281.209167,158.597931 280.720581,160.568344 281.158081,161.280670 
	C284.947510,167.450195 288.849701,173.562241 293.054230,179.451553 
	C293.641327,180.273895 296.052063,179.794281 297.618622,179.917343 
	C297.671234,178.381073 298.339996,176.468460 297.670898,175.373047 
	C294.610413,170.362595 291.174927,165.581207 287.480957,160.105652 
z" />
  <path fill="#4E5961" opacity="1.000000" stroke="none" d="
M300.990112,232.785095 
	C295.216339,232.785095 289.442535,232.785095 282.690521,232.785095 
	C285.418213,236.980774 285.674500,242.071030 292.196747,238.278549 
	C296.112457,236.001678 301.140198,239.404999 303.868622,244.282455 
	C306.731995,249.401154 309.658295,254.505966 312.941711,259.356506 
	C314.052155,260.996887 316.400421,261.761749 318.065125,263.076050 
	C319.475250,264.189331 320.715363,265.517975 322.030731,266.751312 
	C320.668884,267.769440 319.235413,269.709656 317.960297,269.610626 
	C315.429535,269.414154 311.873901,268.846191 310.697479,267.108093 
	C305.372833,259.241028 300.730591,250.912079 295.681305,242.480087 
	C294.903290,242.739838 293.560181,243.188248 291.550049,243.859329 
	C297.286316,255.046265 302.473938,266.234161 300.562988,279.612823 
	C298.259735,279.611603 295.858887,279.618622 294.516571,278.430145 
	C289.898224,274.341125 287.154785,275.124451 285.246490,281.254120 
	C284.611206,283.294769 283.185730,285.089447 282.060699,286.579407 
	C282.019684,283.095306 282.039459,280.028412 282.166748,276.932739 
	C282.274231,276.903961 282.467407,277.014496 282.576691,276.843384 
	C282.780792,276.277832 282.875580,275.883392 282.952942,275.213684 
	C282.948364,274.570984 282.961182,274.203522 282.961121,273.441650 
	C281.834381,269.133545 281.270752,264.949890 279.507385,261.354675 
	C273.244263,248.585403 263.406403,239.571960 249.592499,234.624832 
	C248.456055,234.261658 247.588715,234.093140 246.365494,233.931519 
	C245.060699,233.962997 244.111786,233.987564 242.869263,233.691299 
	C232.554581,231.852783 223.096603,233.757309 213.816437,237.783035 
	C211.591782,232.878906 210.176208,227.787933 203.827805,227.084167 
	C203.088882,227.002274 202.563126,224.997452 201.938538,223.884125 
	C206.427979,221.747101 210.917435,219.610107 215.905884,217.235580 
	C209.672302,215.364731 203.583160,213.383713 197.405685,211.733261 
	C192.713882,210.479752 192.056870,208.057022 194.584518,203.950668 
	C209.161865,207.351791 222.694107,215.234970 238.280823,213.964828 
	C230.180557,198.818649 231.203934,183.918045 239.864349,169.583099 
	C240.081528,171.261475 240.022568,172.628967 239.557281,173.840408 
	C235.797958,183.628250 235.615311,193.731079 237.502411,203.812485 
	C238.058517,206.783325 239.939850,210.364685 242.345917,211.978622 
	C251.627487,218.204590 262.165985,215.452164 268.108795,206.246384 
	C268.526886,207.380219 268.780487,208.224625 269.034119,209.069046 
	C267.586212,210.998535 266.138275,212.928024 264.274353,215.333023 
	C262.971497,216.009277 262.084595,216.210007 261.197693,216.410751 
	C261.245422,216.622452 261.293152,216.834137 261.340881,217.045837 
	C262.598206,216.741013 263.855560,216.436188 265.112885,216.131363 
	C270.073456,213.164413 275.601807,214.216461 280.876617,213.471603 
	C288.692719,212.367905 296.107208,208.416046 303.690521,205.670761 
	C305.221649,205.116486 306.803406,203.965973 308.253387,204.118820 
	C309.887115,204.291046 311.398254,205.626328 312.962677,206.455750 
	C312.011688,207.993530 311.409485,210.312241 310.044037,210.922073 
	C306.013794,212.722092 301.751129,214.132553 297.453247,215.175812 
	C287.957397,217.480804 278.384338,219.467819 269.156860,221.514893 
	C271.706696,225.661377 277.305084,227.948532 282.636108,227.357758 
	C287.725464,226.793762 292.915405,227.137283 298.583496,227.466995 
	C299.733948,229.496429 300.362030,231.140762 300.990112,232.785095 
z" />
  <path fill="#777B83" opacity="1.000000" stroke="none" d="
M267.944336,205.956970 
	C262.165985,215.452164 251.627487,218.204590 242.345917,211.978622 
	C239.939850,210.364685 238.058517,206.783325 237.502411,203.812485 
	C235.615311,193.731079 235.797958,183.628250 239.557281,173.840408 
	C240.022568,172.628967 240.081528,171.261475 240.222809,169.535583 
	C239.776535,169.043930 239.656830,168.847305 240.191238,168.120422 
	C240.777878,167.522552 240.931015,167.319244 241.084152,167.115952 
	C241.084152,167.115952 241.068558,167.052322 241.457458,167.053452 
	C252.319946,161.540726 259.162262,162.393127 263.671326,170.704224 
	C268.051941,178.778595 270.841827,187.481415 269.190308,197.345123 
	C268.910217,199.496902 268.701111,201.267578 268.402405,203.399109 
	C268.189972,204.492294 268.067139,205.224625 267.944336,205.956970 
z" />
  <path fill="#4F5A63" opacity="1.000000" stroke="none" d="
M262.138519,332.246674 
	C241.795975,341.144958 221.967987,339.988617 202.320465,328.640411 
	C202.003036,327.052246 201.998001,326.025116 202.194946,324.723938 
	C202.610641,321.915039 202.501083,319.295441 203.136292,316.870972 
	C203.683289,314.783173 205.079346,312.917847 206.409882,311.105560 
	C210.068436,313.167755 213.454453,315.016388 216.758438,317.001556 
	C225.048050,321.982208 234.022247,320.374725 243.168076,319.901672 
	C244.391937,319.928375 245.341599,319.878357 246.489929,319.765015 
	C247.074249,319.545990 247.459885,319.390259 248.230896,319.135132 
	C250.401306,318.648499 252.186356,318.261292 254.312256,318.044067 
	C259.687592,320.007324 264.722107,321.800598 269.631897,323.549438 
	C266.889130,326.732849 264.513824,329.489746 262.138519,332.246674 
z" />
  <path fill="#49555D" opacity="1.000000" stroke="none" d="
M262.493042,332.194153 
	C264.513824,329.489746 266.889130,326.732849 269.631897,323.549438 
	C264.722107,321.800598 259.687592,320.007324 254.487274,317.742157 
	C268.007294,311.237091 277.645569,301.487091 282.121490,286.996582 
	C283.185730,285.089447 284.611206,283.294769 285.246490,281.254120 
	C287.154785,275.124451 289.898224,274.341125 294.516571,278.430145 
	C295.858887,279.618622 298.259735,279.611603 300.505432,280.073120 
	C298.192139,301.512970 286.868866,317.295624 268.724609,328.565887 
	C266.776764,329.775757 264.807098,330.950531 262.493042,332.194153 
z" />
  <path fill="#49555E" opacity="1.000000" stroke="none" d="
M201.992950,324.997955 
	C201.998001,326.025116 202.003036,327.052246 202.008713,328.464539 
	C198.916397,331.679443 195.855484,334.545380 192.717697,337.324524 
	C191.004791,338.841644 189.161667,340.211823 186.767303,341.899841 
	C185.437775,343.090424 184.718201,344.029449 183.998642,344.968475 
	C183.998642,344.968475 183.950775,345.023163 183.624390,345.106201 
	C182.536423,346.132355 181.774841,347.075439 181.013245,348.018524 
	C181.013245,348.018524 181.007034,347.995880 180.649078,348.072144 
	C175.497482,350.170410 170.703857,352.192413 165.910233,354.214417 
	C165.614441,354.055084 165.364105,353.842255 165.064026,352.899231 
	C164.743042,349.582245 165.001831,346.776764 164.171692,344.342682 
	C163.076584,341.131653 163.945206,339.231934 166.153351,336.869995 
	C168.587326,334.266479 171.264252,331.111206 171.940109,327.808411 
	C173.261475,321.351196 172.715088,321.249084 179.510223,321.863251 
	C180.669281,321.968018 181.839249,321.952179 183.250854,321.846130 
	C183.995789,321.134033 184.494034,320.567841 185.327332,320.000366 
	C186.109146,319.996552 186.555893,319.993988 187.277374,319.807739 
	C188.124161,317.689880 189.149384,315.761536 189.174240,313.820404 
	C189.226654,309.728760 190.540970,307.129852 195.231827,307.244873 
	C199.448624,310.870667 200.900391,315.022644 200.061447,320.265381 
	C199.831390,321.703094 201.302505,323.412964 201.992950,324.997955 
z" />
  <path fill="#4B555D" opacity="1.000000" stroke="none" d="
M201.586472,223.964020 
	C202.563126,224.997452 203.088882,227.002274 203.827805,227.084167 
	C210.176208,227.787933 211.591782,232.878906 213.604538,238.046448 
	C208.125656,243.746887 202.640839,248.900482 196.833008,254.125885 
	C195.671021,254.468842 194.832047,254.739990 193.833710,254.782181 
	C192.450714,255.036545 191.227081,255.519867 189.688675,256.056580 
	C188.582382,256.408844 187.790878,256.707703 186.597778,257.005493 
	C183.040070,257.063354 179.192520,255.775162 178.753952,261.043457 
	C178.721420,261.434143 177.091385,261.691864 176.204025,262.011383 
	C177.516663,251.741837 182.266159,243.061813 189.574615,234.571564 
	C185.462204,233.596100 182.122375,232.438889 178.700348,232.091721 
	C175.057953,231.722214 174.434753,229.542358 175.383850,227.008484 
	C175.719299,226.112885 178.516083,225.616592 180.082901,225.807953 
	C183.964722,226.282074 187.803604,227.178070 191.625458,228.054184 
	C195.841064,229.020569 198.214249,225.809753 201.586472,223.964020 
z" />
  <path fill="#4E5961" opacity="1.000000" stroke="none" d="
M175.973724,262.341309 
	C177.091385,261.691864 178.721420,261.434143 178.753952,261.043457 
	C179.192520,255.775162 183.040070,257.063354 186.743256,257.319153 
	C189.614090,258.784454 191.937851,259.935089 194.179611,261.399719 
	C193.715485,262.473846 193.333359,263.233978 192.590012,264.087402 
	C190.540375,265.643250 187.689255,266.970428 187.498703,268.607300 
	C187.317200,270.166565 189.912064,272.048981 191.280945,273.917969 
	C191.275574,274.046570 191.018341,274.035980 191.022583,274.268005 
	C191.026840,274.500000 191.100006,274.958252 190.929260,275.322021 
	C190.504669,278.456787 190.250824,281.227783 189.639481,283.952637 
	C187.522034,283.269958 185.762085,282.633453 184.166351,281.727386 
	C184.592911,280.278046 184.855255,279.098267 185.117584,277.918518 
	C184.548767,277.769958 183.979935,277.621429 183.411102,277.472870 
	C182.940414,278.980286 182.469727,280.487701 181.704849,282.123718 
	C178.373169,284.239349 179.300125,286.288300 181.872162,287.339539 
	C184.386154,288.367096 187.273499,288.481262 190.027039,289.381470 
	C191.182877,292.677063 192.509155,295.529388 193.375534,298.515137 
	C194.174026,301.266876 194.478516,304.161957 195.000610,306.993896 
	C190.540970,307.129852 189.226654,309.728760 189.174240,313.820404 
	C189.149384,315.761536 188.124161,317.689880 187.227310,319.449829 
	C185.335480,317.602417 183.768433,315.929230 181.716324,313.738098 
	C182.264023,313.079102 183.129517,312.037720 184.118622,311.195374 
	C184.763184,311.556183 185.284149,311.717957 185.805115,311.879730 
	C185.203812,311.250610 184.602524,310.621460 183.915848,309.625824 
	C182.690109,302.736664 183.087006,302.341705 189.658508,303.770416 
	C190.517517,301.069458 190.792252,297.350342 187.238525,298.264069 
	C182.316635,299.529633 179.436279,297.401367 176.146759,294.996063 
	C176.078781,294.280975 176.010818,293.565857 176.111862,292.439087 
	C176.726196,291.795105 177.171524,291.562866 177.616852,291.330627 
	C177.471436,291.137787 177.326019,290.944977 177.180618,290.752167 
	C176.735748,291.221100 176.290878,291.690033 175.846024,292.158966 
	C175.574112,289.729187 175.302200,287.299408 175.162384,284.119629 
	C175.859940,281.577881 176.425400,279.786133 177.159821,277.888184 
	C177.220108,277.185730 177.111420,276.589386 176.850784,275.729492 
	C175.842575,274.643341 174.986328,273.820740 174.130096,272.998108 
	C174.667862,269.555817 175.205643,266.113525 175.973724,262.341309 
M183.942581,293.820648 
	C184.320587,293.810822 184.698608,293.801025 185.076614,293.791199 
	C185.008087,293.517761 184.939560,293.244354 184.871048,292.970917 
	C184.535004,293.144989 184.198959,293.319092 183.942581,293.820648 
M180.972717,265.882965 
	C180.972717,265.882965 181.007980,266.122345 181.007980,266.122345 
	C181.007980,266.122345 181.071442,265.890686 180.972717,265.882965 
z" />
  <path fill="#4F575F" opacity="1.000000" stroke="none" d="
M176.231323,295.351471 
	C179.436279,297.401367 182.316635,299.529633 187.238525,298.264069 
	C190.792252,297.350342 190.517517,301.069458 189.658508,303.770416 
	C183.087006,302.341705 182.690109,302.736664 183.914307,309.876892 
	C183.997101,310.661743 183.996063,310.829041 183.995026,310.996338 
	C183.129517,312.037720 182.264023,313.079102 181.716324,313.738098 
	C183.768433,315.929230 185.335480,317.602417 186.952576,319.633545 
	C186.555893,319.993988 186.109146,319.996552 185.081268,320.147125 
	C184.001495,320.860809 183.502823,321.426422 183.004166,321.992065 
	C181.839249,321.952179 180.669281,321.968018 179.510223,321.863251 
	C172.715088,321.249084 173.261475,321.351196 171.940109,327.808411 
	C171.264252,331.111206 168.587326,334.266479 166.153351,336.869995 
	C163.945206,339.231934 163.076584,341.131653 164.171692,344.342682 
	C165.001831,346.776764 164.743042,349.582245 164.961639,352.673523 
	C155.475479,349.826263 152.536102,337.200073 159.823380,329.723785 
	C163.797806,325.646271 168.506866,322.285858 172.870377,318.585236 
	C173.501511,318.049988 174.031509,317.397247 174.644043,316.837982 
	C179.429962,312.468231 183.254684,307.979797 178.228455,301.234863 
	C177.117981,299.744659 176.929123,297.567627 176.231323,295.351471 
z" />
  <path fill="#4F595E" opacity="1.000000" stroke="none" d="
M197.718704,190.347961 
	C194.334000,184.656128 191.058594,179.330460 187.941467,173.913681 
	C186.624405,171.624985 185.913773,169.032318 189.103683,167.647934 
	C192.120377,166.338730 193.739029,167.732849 195.115005,170.733078 
	C199.274139,179.801773 203.747803,188.732224 208.362030,197.579300 
	C209.006485,198.814926 211.077637,199.861725 212.573944,199.988922 
	C216.372757,200.311829 220.259033,199.734329 224.031815,200.180695 
	C225.943268,200.406845 227.684921,202.068192 229.503342,203.080673 
	C229.261658,203.706238 229.019958,204.331802 228.778275,204.957367 
	C221.733521,204.957367 214.683060,205.102081 207.649277,204.824295 
	C206.379410,204.774139 204.790695,203.224106 204.018539,201.958237 
	C201.793030,198.309753 199.909714,194.452515 197.718704,190.347961 
z" />
  <path fill="#4B555D" opacity="1.000000" stroke="none" d="
M298.861664,196.945496 
	C300.562653,193.581100 302.213043,190.189911 303.976135,186.858368 
	C306.887665,181.356644 309.881256,175.898407 312.821503,170.411804 
	C314.216034,167.809631 316.226654,165.915833 319.095551,167.744644 
	C321.586731,169.332672 321.264496,171.544189 319.515167,174.121719 
	C314.711700,181.199585 310.290985,188.537231 305.013489,195.932602 
	C302.492676,196.377258 300.677155,196.661377 298.861664,196.945496 
z" />
  <path fill="#49555E" opacity="1.000000" stroke="none" d="
M301.345642,232.987579 
	C300.362030,231.140762 299.733948,229.496429 299.047485,227.524551 
	C307.253662,227.473557 315.522858,227.666626 323.777130,228.127411 
	C324.866333,228.188232 326.759216,229.649368 326.730133,230.402054 
	C326.681244,231.667480 325.503296,233.854340 324.599365,233.961731 
	C319.538483,234.562897 314.414948,234.883881 309.317932,234.828400 
	C306.773376,234.800720 304.239777,233.768127 301.345642,232.987579 
z" />
  <path fill="#464F53" opacity="1.000000" stroke="none" d="
M268.108795,206.246384 
	C268.067139,205.224625 268.189972,204.492294 268.633179,203.212723 
	C269.056091,200.765015 269.158661,198.864517 269.261261,196.964035 
	C270.841827,187.481415 268.051941,178.778595 263.671326,170.704224 
	C259.162262,162.393127 252.319946,161.540726 241.483551,167.073242 
	C243.424866,165.090469 245.420685,162.154663 248.094131,161.272598 
	C254.647812,159.110245 261.282898,162.186417 265.020447,168.223511 
	C272.897858,180.947464 275.287262,194.314484 269.320679,208.828766 
	C268.780487,208.224625 268.526886,207.380219 268.108795,206.246384 
z" />
  <path fill="#4F595E" opacity="1.000000" stroke="none" d="
M225.356216,162.257660 
	C222.836472,166.542282 220.672119,170.610596 218.181808,174.468521 
	C216.806076,176.599762 215.008560,178.513885 213.135010,180.236359 
	C212.541855,180.781677 210.763535,180.809814 210.118134,180.310837 
	C209.463287,179.804550 209.000092,178.066040 209.377258,177.363174 
	C212.770294,171.040192 216.163147,164.693604 220.075226,158.692383 
	C220.860977,157.487015 223.847641,157.716370 225.819534,157.284210 
	C225.738205,158.840652 225.656876,160.397079 225.356216,162.257660 
z" />
  <path fill="#4F595E" opacity="1.000000" stroke="none" d="
M287.677551,160.411591 
	C291.174927,165.581207 294.610413,170.362595 297.670898,175.373047 
	C298.339996,176.468460 297.671234,178.381073 297.618622,179.917343 
	C296.052063,179.794281 293.641327,180.273895 293.054230,179.451553 
	C288.849701,173.562241 284.947510,167.450195 281.158081,161.280670 
	C280.720581,160.568344 281.209167,158.597931 281.914520,158.063431 
	C282.644714,157.510071 284.250763,157.739792 285.307098,158.106674 
	C286.160217,158.403000 286.765656,159.412521 287.677551,160.411591 
z" />
  <path fill="#4F575F" opacity="1.000000" stroke="none" d="
M292.011688,204.719116 
	C285.919800,205.316986 279.827942,205.914856 273.223602,206.563019 
	C274.916260,201.667877 277.722321,199.881348 282.283142,199.926453 
	C286.888885,199.972031 291.501251,199.351608 296.418945,199.359512 
	C295.155365,201.370422 293.583527,203.044769 292.011688,204.719116 
z" />
  <path fill="#526366" opacity="1.000000" stroke="none" d="
M292.441925,204.779617 
	C293.583527,203.044769 295.155365,201.370422 296.871094,199.402222 
	C297.464935,198.494125 297.914856,197.879868 298.613220,197.105560 
	C300.677155,196.661377 302.492676,196.377258 304.702332,196.068085 
	C302.188171,204.242493 301.103210,205.023270 292.441925,204.779617 
z" />
  <path fill="#4F575F" opacity="1.000000" stroke="none" d="
M166.177979,354.511292 
	C170.703857,352.192413 175.497482,350.170410 180.658325,348.082520 
	C177.632141,353.428772 172.802948,355.758575 166.177979,354.511292 
z" />
  <path fill="#4F575F" opacity="1.000000" stroke="none" d="
M176.990845,277.994354 
	C176.425400,279.786133 175.859940,281.577881 175.141510,283.688599 
	C174.674377,280.637177 174.360229,277.266785 174.088089,273.447266 
	C174.986328,273.820740 175.842575,274.643341 176.848877,276.063171 
	C176.996231,277.105072 176.993530,277.549713 176.990845,277.994354 
z" />
  <path fill="#4F575F" opacity="1.000000" stroke="none" d="
M181.315399,347.948883 
	C181.774841,347.075439 182.536423,346.132355 183.597015,345.082336 
	C183.136520,345.943329 182.377014,346.911285 181.315399,347.948883 
z" />
  <path fill="#4F575F" opacity="1.000000" stroke="none" d="
M184.297333,344.907166 
	C184.718201,344.029449 185.437775,343.090424 186.448608,342.041138 
	C186.025269,342.902557 185.310654,343.874207 184.297333,344.907166 
z" />
  <path fill="#464F53" opacity="1.000000" stroke="none" d="
M240.856796,167.116516 
	C240.931015,167.319244 240.777878,167.522552 240.330521,167.970840 
	C240.234009,167.849579 240.431732,167.483322 240.856796,167.116516 
z" />
  <path fill="#000000" opacity="1.000000" stroke="none" d="
M192.951233,263.994110 
	C193.333359,263.233978 193.715485,262.473846 194.449249,261.176208 
	C195.585922,258.443787 196.370972,256.248932 197.156021,254.054077 
	C202.640839,248.900482 208.125656,243.746887 213.822372,238.329895 
	C223.096603,233.757309 232.554581,231.852783 242.815430,234.155457 
	C243.085739,247.959488 243.116241,260.978516 242.849854,274.315338 
	C235.994537,274.763824 229.436081,274.894562 222.727264,274.615845 
	C212.057373,274.149628 201.537857,274.092804 191.018341,274.035950 
	C191.018341,274.035980 191.275574,274.046570 191.363983,273.557556 
	C191.952011,270.043732 192.451614,267.018921 192.951233,263.994110 
z" />
  <path fill="#000000" opacity="1.000000" stroke="none" d="
M282.060699,286.579407 
	C277.645569,301.487091 268.007294,311.237091 254.146439,317.572144 
	C252.186356,318.261292 250.401306,318.648499 247.908722,318.835144 
	C247.128571,306.344879 246.982880,294.054657 247.072876,281.766205 
	C247.084549,280.172180 248.312576,278.587036 249.445740,276.955170 
	C259.996765,276.840698 270.079254,276.768829 280.479309,276.733521 
	C281.217651,276.833893 281.638428,276.897705 282.059235,276.961517 
	C282.039459,280.028412 282.019684,283.095306 282.060699,286.579407 
z" />
  <path fill="#000000" opacity="1.000000" stroke="none" d="
M249.861603,234.819458 
	C263.406403,239.571960 273.244263,248.585403 279.507385,261.354675 
	C281.270752,264.949890 281.834381,269.133545 282.497742,273.504364 
	C271.031342,273.976715 260.015503,273.991974 248.837372,273.951447 
	C248.675064,273.895630 248.342178,273.979919 248.099396,273.618042 
	C247.566376,271.691528 247.039719,270.129303 247.024002,268.561920 
	C246.915497,257.741028 246.913544,246.919037 246.967667,235.900543 
	C247.057983,235.703674 247.031372,235.271317 247.375381,235.167419 
	C248.433456,234.982178 249.147537,234.900818 249.861603,234.819458 
z" />
  <path fill="#526366" opacity="1.000000" stroke="none" d="
M247.031372,235.271317 
	C247.031372,235.271317 247.057983,235.703674 246.845581,236.283173 
	C246.406525,249.251114 246.179871,261.639526 245.744415,274.072327 
	C245.535614,274.116669 245.116714,274.199097 244.788330,274.165955 
	C244.022232,274.087708 243.584488,274.042633 243.146759,273.997559 
	C243.116241,260.978516 243.085739,247.959488 243.109070,234.476303 
	C244.111786,233.987564 245.060699,233.962997 246.406128,234.276794 
	C246.878906,234.833878 246.955139,235.052597 247.031372,235.271317 
z" />
  <path fill="#777B83" opacity="1.000000" stroke="none" d="
M248.999680,274.007263 
	C260.015503,273.991974 271.031342,273.976715 282.510590,273.898743 
	C282.961182,274.203522 282.948364,274.570984 282.795258,275.585205 
	C282.592438,276.492767 282.529938,276.753632 282.467407,277.014496 
	C282.467407,277.014496 282.274231,276.903961 282.166748,276.932739 
	C281.638428,276.897705 281.217651,276.833893 280.260864,276.416351 
	C275.182922,275.717010 270.643372,275.335632 266.098419,275.034821 
	C260.401123,274.657776 254.699463,274.346802 248.999680,274.007263 
z" />
  <path fill="#000000" opacity="1.000000" stroke="none" d="
M264.911377,215.948715 
	C263.855560,216.436188 262.598206,216.741013 261.340881,217.045837 
	C261.293152,216.834137 261.245422,216.622452 261.197693,216.410751 
	C262.084595,216.210007 262.971497,216.009277 264.081909,215.605438 
	C264.440247,215.523590 264.575073,215.644836 264.911377,215.948715 
z" />
  <path fill="#959CA6" opacity="1.000000" stroke="none" d="
M247.375381,235.167419 
	C246.955139,235.052597 246.878906,234.833878 246.762024,234.269897 
	C247.588715,234.093140 248.456055,234.261658 249.592499,234.624817 
	C249.147537,234.900818 248.433456,234.982178 247.375381,235.167419 
z" />
  <path fill="#464F53" opacity="1.000000" stroke="none" d="
M282.576691,276.843384 
	C282.529938,276.753632 282.592438,276.492767 282.812683,275.860413 
	C282.875580,275.883392 282.780792,276.277832 282.576691,276.843384 
z" />
  <path fill="#4E5961" opacity="1.000000" stroke="none" d="
M269.190308,197.345123 
	C269.158661,198.864517 269.056091,200.765015 268.722778,202.851883 
	C268.701111,201.267578 268.910217,199.496902 269.190308,197.345123 
z" />
  <path fill="#000000" opacity="1.000000" stroke="none" d="
M242.893860,319.824921 
	C234.022247,320.374725 225.048050,321.982208 216.758438,317.001556 
	C213.454453,315.016388 210.068436,313.167755 206.249237,310.808807 
	C196.162872,301.683380 191.564926,290.925262 192.049438,277.022003 
	C209.202393,277.022003 226.081635,277.022003 242.986664,277.446228 
	C243.336716,280.783691 243.985611,283.703461 243.927628,286.609100 
	C243.706619,297.683533 243.257645,308.753357 242.893860,319.824921 
z" />
  <path fill="#4F575F" opacity="1.000000" stroke="none" d="
M242.960876,277.021973 
	C226.081635,277.022003 209.202393,277.022003 192.049438,277.022003 
	C191.564926,290.925262 196.162872,301.683380 205.939346,310.657410 
	C205.079346,312.917847 203.683289,314.783173 203.136292,316.870972 
	C202.501083,319.295441 202.610641,321.915039 202.194946,324.723938 
	C201.302505,323.412964 199.831390,321.703094 200.061447,320.265381 
	C200.900391,315.022644 199.448624,310.870667 195.231827,307.244873 
	C194.478516,304.161957 194.174026,301.266876 193.375534,298.515137 
	C192.509155,295.529388 191.182877,292.677063 190.027893,288.965149 
	C189.998093,286.775421 189.997543,285.387085 189.996979,283.998779 
	C190.250824,281.227783 190.504669,278.456787 191.391296,275.341125 
	C202.308609,275.006042 212.593124,275.015656 222.877640,275.025269 
	C229.436081,274.894562 235.994537,274.763824 242.849869,274.315338 
	C243.584488,274.042633 244.022232,274.087708 244.768433,274.455780 
	C245.062744,275.169800 245.048569,275.560791 244.775146,276.085510 
	C243.997543,276.486816 243.479202,276.754395 242.960876,277.021973 
z" />
  <path fill="#526366" opacity="1.000000" stroke="none" d="
M242.986649,277.446198 
	C243.479202,276.754395 243.997543,276.486816 244.944000,276.271545 
	C245.591385,276.576660 245.810669,276.829468 246.038803,277.545715 
	C246.128845,291.948914 246.210052,305.888611 246.291245,319.828339 
	C245.341599,319.878357 244.391937,319.928375 243.168060,319.901672 
	C243.257645,308.753357 243.706619,297.683533 243.927628,286.609100 
	C243.985611,283.703461 243.336716,280.783691 242.986649,277.446198 
z" />
  <path fill="#959CA6" opacity="1.000000" stroke="none" d="
M246.489929,319.765015 
	C246.210052,305.888611 246.128845,291.948914 246.405304,277.501465 
	C247.501038,276.995117 248.239090,276.996429 248.977173,276.997772 
	C248.312576,278.587036 247.084549,280.172180 247.072876,281.766205 
	C246.982880,294.054657 247.128571,306.344879 247.523346,318.934509 
	C247.459885,319.390259 247.074249,319.545990 246.489929,319.765015 
z" />
  <path fill="#4E5961" opacity="1.000000" stroke="none" d="
M183.250854,321.846130 
	C183.502823,321.426422 184.001495,320.860809 184.746216,320.148438 
	C184.494034,320.567841 183.995789,321.134033 183.250854,321.846130 
z" />
  <path fill="#4F575F" opacity="1.000000" stroke="none" d="
M196.833008,254.125885 
	C196.370972,256.248932 195.585922,258.443787 194.531250,260.862183 
	C191.937851,259.935089 189.614090,258.784454 187.144852,257.320190 
	C187.790878,256.707703 188.582382,256.408844 189.959915,256.180054 
	C191.694977,255.837082 192.844025,255.424118 193.993073,255.011139 
	C194.832047,254.739990 195.671021,254.468842 196.833008,254.125885 
z" />
  <path fill="#4E5961" opacity="1.000000" stroke="none" d="
M193.833710,254.782181 
	C192.844025,255.424118 191.694977,255.837082 190.274689,256.126617 
	C191.227081,255.519867 192.450714,255.036545 193.833710,254.782181 
z" />
  <path fill="#4B555D" opacity="1.000000" stroke="none" d="
M189.639496,283.952637 
	C189.997543,285.387085 189.998093,286.775421 189.997803,288.580017 
	C187.273499,288.481262 184.386154,288.367096 181.872162,287.339539 
	C179.300125,286.288300 178.373169,284.239349 182.038696,282.124573 
	C183.111862,281.996826 183.556992,281.996887 184.002136,281.996979 
	C185.762085,282.633453 187.522034,283.269958 189.639496,283.952637 
z" />
  <path fill="#4F575F" opacity="1.000000" stroke="none" d="
M192.589996,264.087402 
	C192.451614,267.018921 191.952011,270.043732 191.369354,273.428955 
	C189.912064,272.048981 187.317200,270.166565 187.498703,268.607300 
	C187.689255,266.970428 190.540375,265.643250 192.589996,264.087402 
z" />
  <path fill="#C9BDB5" opacity="1.000000" stroke="none" d="
M222.727264,274.615845 
	C212.593124,275.015656 202.308609,275.006042 191.562042,274.977356 
	C191.100006,274.958252 191.026840,274.500000 191.022583,274.267975 
	C201.537857,274.092804 212.057373,274.149628 222.727264,274.615845 
z" />
  <path fill="#4F575F" opacity="1.000000" stroke="none" d="
M184.166351,281.727386 
	C183.556992,281.996887 183.111862,281.996826 182.332886,281.995941 
	C182.469727,280.487701 182.940414,278.980286 183.411102,277.472870 
	C183.979935,277.621429 184.548767,277.769958 185.117584,277.918518 
	C184.855255,279.098267 184.592911,280.278046 184.166351,281.727386 
z" />
  <path fill="#4F575F" opacity="1.000000" stroke="none" d="
M183.902740,293.656921 
	C184.198959,293.319092 184.535004,293.144989 184.871048,292.970917 
	C184.939560,293.244354 185.008087,293.517761 185.076614,293.791199 
	C184.698608,293.801025 184.320587,293.810822 183.902740,293.656921 
z" />
  <path fill="#49555E" opacity="1.000000" stroke="none" d="
M184.118622,311.195374 
	C183.996063,310.829041 183.997101,310.661743 183.999680,310.243408 
	C184.602524,310.621460 185.203812,311.250610 185.805115,311.879730 
	C185.284149,311.717957 184.763184,311.556183 184.118622,311.195374 
z" />
  <path fill="#4F575F" opacity="1.000000" stroke="none" d="
M175.873947,292.097687 
	C176.290878,291.690033 176.735748,291.221100 177.180618,290.752167 
	C177.326019,290.944977 177.471436,291.137787 177.616852,291.330627 
	C177.171524,291.562866 176.726196,291.795105 176.048248,292.085144 
	C175.815598,292.142914 175.901871,292.036407 175.873947,292.097687 
z" />
  <path fill="#4B555D" opacity="1.000000" stroke="none" d="
M177.159821,277.888184 
	C176.993530,277.549713 176.996231,277.105072 177.000839,276.326752 
	C177.111420,276.589386 177.220108,277.185730 177.159821,277.888184 
z" />
  <path fill="#4B555D" opacity="1.000000" stroke="none" d="
M181.022079,265.886841 
	C181.071442,265.890686 181.007980,266.122345 181.007980,266.122345 
	C181.007980,266.122345 180.972717,265.882965 181.022079,265.886841 
z" />
  <path fill="#464F53" opacity="1.000000" stroke="none" d="
M249.445724,276.955170 
	C248.239090,276.996429 247.501038,276.995117 246.396454,277.038025 
	C245.810669,276.829468 245.591385,276.576660 245.203247,276.137848 
	C245.048569,275.560791 245.062744,275.169800 245.096802,274.488953 
	C245.116714,274.199097 245.535614,274.116669 246.143280,274.171936 
	C247.281357,274.144806 247.811768,274.062378 248.342178,273.979919 
	C248.342178,273.979919 248.675064,273.895630 248.837372,273.951447 
	C254.699463,274.346802 260.401123,274.657776 266.098419,275.034821 
	C270.643372,275.335632 275.182922,275.717010 279.943298,276.379822 
	C270.079254,276.768829 259.996765,276.840698 249.445724,276.955170 
z" />
  <path fill="#959CA6" opacity="1.000000" stroke="none" d="
M248.099396,273.618042 
	C247.811768,274.062378 247.281357,274.144806 246.352081,274.127594 
	C246.179871,261.639526 246.406525,249.251114 246.755249,236.480042 
	C246.913544,246.919037 246.915497,257.741028 247.024002,268.561920 
	C247.039719,270.129303 247.566376,271.691528 248.099396,273.618042 
z" />
</svg>